o mao
v 0.776488 -1.000000 -0.337002
v -0.637112 0.980136 -0.268514
v -0.776488 1.000000 -0.337002
v -0.637112 0.980136 0.268514
v -0.776488 -1.000000 -0.337002
v -0.637112 -0.975926 -0.268514
v -0.776488 1.000000 0.337002
v -0.637112 -0.975926 0.268514
v -0.776488 -1.000000 0.337002
v 0.739141 -0.975926 0.268514
v 0.776488 -1.000000 0.337002
v 0.739141 0.980136 0.268514
v 0.776488 1.000000 0.337002
v 0.739141 -0.975926 -0.268514
v 0.739141 0.980136 -0.268514
v 0.776488 1.000000 -0.337002
v -0.637112 1.000000 0.268514
v -0.637112 1.000000 -0.268514
v 0.776488 1.000000 0.268514
v 0.776488 1.000000 -0.268514
v 0.776488 -1.000000 0.268514
v 0.776488 -1.000000 -0.268514
v -0.637112 -1.000000 0.268514
v -0.637112 -1.000000 -0.268514
vn -0.0000 1.0000 -0.0000
vn -0.0000 -0.0000 1.0000
vn -1.0000 -0.0000 -0.0000
vn -0.0000 -1.0000 -0.0000
vn -0.0000 -0.0000 -1.0000
vn 1.0000 -0.0000 -0.0000
vt 0.818919 0.999304
vt 0.000588 0.999304
vt 0.763807 0.966245
vt 0.001971 0.999645
vt 0.816502 0.874055
vt 0.816502 0.999645
vt 0.818070 0.874075
vt 0.002599 0.999940
vt 0.002599 0.874075
vt 0.818193 0.999208
vt 0.000659 0.999208
vt 0.765336 0.966346
vt 0.819473 0.999955
vt 0.000230 0.000164
vt 0.819228 0.000172
vt 0.003209 0.874141
vt 0.815008 0.999445
vt 0.003209 0.999445
vt 0.819210 0.874138
vt 0.000075 0.999805
vt 0.819210 0.999805
vt 0.819248 0.874286
vt 0.000387 0.999362
vt 0.000387 0.874286
vt 0.001269 0.874319
vt 0.819168 0.999941
vt 0.001269 0.999941
vt 0.706979 0.959003
vt 0.705524 0.959731
vt 0.705524 0.899226
vt 0.819523 0.999668
vt 0.999965 0.001051
vt 0.819401 0.001190
vt 0.109534 0.956165
vt 0.109534 0.896968
vt 0.111908 0.896498
vt 0.999643 0.999308
vt 0.820764 0.001386
vt 0.999643 0.001387
vt 1.000000 0.999998
vt 0.819995 0.001290
vt 1.000000 0.001290
vt 0.763807 0.896368
vt 0.818919 0.896368
vt 0.000588 0.896368
vt 0.057411 0.966245
vt 0.057411 0.896368
vt 0.001971 0.874055
vt 0.818070 0.999940
vt 0.765336 0.897073
vt 0.818193 0.897073
vt 0.000659 0.896366
vt 0.057110 0.966346
vt 0.057110 0.896366
vt -0.000000 1.000005
vt 0.815008 0.874141
vt 0.000075 0.874138
vt 0.819248 0.999362
vt 0.819168 0.874319
vt 0.760599 0.899226
vt 0.760599 0.899827
vt 0.706979 0.899827
vt 0.760599 0.959003
vt 0.760599 0.959731
vt 0.999650 0.999494
vt 0.111908 0.956735
vt 0.058874 0.956735
vt 0.058874 0.956165
vt 0.058874 0.896968
vt 0.058874 0.896498
vt 0.820764 0.999308
vt 0.819381 0.999998
s 0
f 3/1/1 7/2/1 18/3/1
f 13/4/2 9/5/2 11/6/2
f 7/7/3 5/8/3 9/9/3
f 9/10/4 5/11/4 23/12/4
f 3/13/5 1/14/5 5/15/5
f 16/16/6 22/17/6 1/18/6
f 11/19/6 19/20/6 13/21/6
f 4/22/6 18/23/6 17/24/6
f 8/25/6 24/26/6 6/27/6
f 14/28/2 22/29/2 20/30/2
f 15/31/6 10/32/6 14/33/6
f 10/34/5 12/35/5 19/36/5
f 14/37/4 8/38/4 6/39/4
f 2/40/1 12/41/1 15/42/1
f 18/3/1 20/43/1 16/44/1
f 7/2/1 13/45/1 17/46/1
f 13/45/1 19/47/1 17/46/1
f 18/3/1 16/44/1 3/1/1
f 7/2/1 17/46/1 18/3/1
f 13/4/2 7/48/2 9/5/2
f 7/7/3 3/49/3 5/8/3
f 21/50/4 11/51/4 23/12/4
f 11/51/4 9/10/4 23/12/4
f 5/11/4 1/52/4 24/53/4
f 1/52/4 22/54/4 24/53/4
f 5/11/4 24/53/4 23/12/4
f 3/13/5 16/55/5 1/14/5
f 16/16/6 20/56/6 22/17/6
f 11/19/6 21/57/6 19/20/6
f 4/22/6 2/58/6 18/23/6
f 8/25/6 23/59/6 24/26/6
f 18/60/2 2/61/2 15/62/2
f 14/28/2 6/63/2 24/64/2
f 20/30/2 18/60/2 15/62/2
f 14/28/2 24/64/2 22/29/2
f 20/30/2 15/62/2 14/28/2
f 15/31/6 12/65/6 10/32/6
f 21/66/5 23/67/5 10/34/5
f 23/67/5 8/68/5 10/34/5
f 4/69/5 17/70/5 12/35/5
f 17/70/5 19/36/5 12/35/5
f 21/66/5 10/34/5 19/36/5
f 14/37/4 10/71/4 8/38/4
f 2/40/1 4/72/1 12/41/1
