o Z10Wcamhold
v -2.428730 6.457909 4.949203
v -4.412731 6.457909 3.654311
v -4.412731 9.019207 6.215498
v -2.428730 9.019209 7.510512
v -0.086431 6.457909 5.401504
v -0.086431 9.019209 7.962706
v 2.253469 9.019209 7.510512
v 2.253469 6.457909 4.949203
v 4.237469 9.019207 6.215498
v 4.237469 6.457909 3.654311
v 4.237469 15.312908 -0.323290
v 4.237469 11.970806 -3.177400
v -0.086431 11.970806 -3.174394
v -0.086431 15.312908 -0.321001
v -4.412731 15.312908 6.215498
v -0.086431 15.312908 7.962706
v -2.428730 15.312908 7.510511
v 2.253469 15.312908 7.510511
v 4.237469 15.312908 6.215498
v -4.412731 15.312908 -0.323290
v -4.412731 11.970806 -3.177400
v 3.463870 6.024707 -10.080491
v -0.086431 7.667106 -10.785096
v -0.086431 6.024707 -10.785096
v 3.463870 7.667106 -10.080491
v 6.477470 6.024707 -8.066697
v 6.477470 7.667106 -8.066697
v 8.486468 6.024708 -5.055497
v 8.486468 7.667107 -5.055497
v 9.195768 6.024708 -1.503694
v 9.195768 7.667107 -1.503694
v 8.486468 6.024708 2.047500
v 8.486468 7.667107 2.047499
v 6.477470 6.024708 5.058700
v 6.477470 7.667107 5.058700
v 3.463870 6.024709 7.072509
v 3.463870 7.667108 7.072509
v -0.086431 6.024709 7.781798
v -0.086431 7.667108 7.781798
v -3.639131 6.024709 7.072509
v -3.639131 7.667108 7.072509
v -6.652730 6.024708 5.058700
v -6.652730 7.667107 5.058700
v -8.661731 6.024708 2.047500
v -8.661731 7.667107 2.047499
v -9.371131 6.024708 -1.503694
v -9.371131 7.667107 -1.503694
v -8.661731 6.024708 -5.055497
v -8.661731 7.667107 -5.055497
v -6.652730 6.024707 -8.066697
v -6.652730 7.667106 -8.066697
v -3.639131 6.024707 -10.080491
v -3.639131 7.667106 -10.080491
v -0.086431 7.667106 -9.156892
v -3.015531 7.667106 -8.576097
v -5.500631 12.113605 -6.914598
v -3.015531 12.113605 -8.576097
v -5.500631 7.667106 -6.914598
v -7.157330 7.667107 -4.433091
v -7.157330 12.113605 -4.433092
v -7.742931 12.113605 -1.503694
v 7.567669 12.113605 -1.503694
v 6.982069 12.113605 -4.433092
v 5.325369 12.113605 -6.914598
v 6.982069 7.667107 -4.433091
v 5.325369 7.667106 -6.914598
v 2.840169 12.113605 -8.576097
v 2.840169 7.667106 -8.576097
v -0.086431 12.113605 -9.156893
v 7.567669 7.667107 -1.503694
v 6.982069 7.667107 1.426207
v 5.325369 7.667107 3.906600
v 6.982069 12.113605 1.426207
v -5.500631 12.113605 3.906600
v -7.157330 12.113605 1.426207
v 5.325369 12.113605 3.906600
v 2.840169 12.113605 5.568099
v 2.840169 7.667107 5.568099
v -3.015531 12.113605 5.568099
v -3.015531 7.667107 5.568099
v -5.500631 7.667107 3.906600
v -7.157330 7.667107 1.426207
v -7.742931 7.667107 -1.503694
v -0.086431 7.667107 6.148910
v -0.086431 0.778310 9.133910
v 4.211270 0.778310 8.191207
v -0.086431 -3.512793 9.133911
v -4.386631 0.778310 8.191207
v -4.355631 -4.305591 8.181702
v -8.033331 0.778310 6.339309
v -7.985731 -6.665092 6.344101
v -10.466031 -6.674590 2.987808
v -10.466031 0.778309 2.916305
v -11.323031 -6.674591 -2.100296
v -11.323031 0.778309 -2.100296
v -10.466031 0.778309 -7.162095
v -10.466031 -6.674591 -7.190689
v -8.033331 0.778308 -10.737489
v -7.985731 -7.648194 -10.737488
v -4.355631 -5.288094 -12.384689
v -4.386631 0.778308 -12.375199
v -0.086431 0.778308 -13.336793
v -0.086431 -4.494793 -13.336792
v 4.180370 -5.288094 -12.384689
v 4.180370 -4.305591 8.181702
v 4.211270 0.778308 -12.375199
v 7.858070 0.778308 -10.737489
v 7.810469 -7.648194 -10.737488
v 10.290769 -6.674591 -7.190689
v 10.290769 0.778309 -7.162095
v 11.147669 -6.674591 -2.100296
v 11.147669 0.778309 -2.100296
v 10.290769 0.778309 2.916305
v 10.290769 -6.674590 2.987808
v 7.858070 0.778310 6.339309
v 7.810469 -6.665092 6.344101
v 7.815170 -13.956191 6.344101
v 10.205069 -13.956192 2.987809
v 7.815170 -16.565094 5.939408
v 7.815170 -16.565094 -10.332793
v 7.815170 -13.956192 -10.737487
v 10.205069 -13.956192 -7.190689
v 10.176569 -16.565094 -6.969298
v 11.147669 -13.956192 -2.100296
v 10.176569 -16.565094 2.766404
v 11.004869 -16.565094 -2.100295
v 9.824268 -18.869293 2.152207
v 10.414569 -18.869293 -2.100295
v 9.824268 -18.869293 -6.355193
v 7.810469 -18.869293 -9.199691
v 8.872068 -21.106796 -4.776992
v 7.810469 -21.106796 -7.043090
v 7.810469 -21.106796 2.840211
v 7.805669 -22.563591 -2.100295
v 7.810469 -18.869293 4.806413
v 8.867269 -21.106796 0.574113
v 9.138669 -21.116295 -2.100295
v -7.990430 -13.956192 -10.737487
v -10.380331 -13.956192 -7.190689
v -7.990430 -13.956191 6.344101
v -10.380331 -13.956192 2.987809
v -7.990430 -16.565094 5.939408
v -7.990430 -16.565094 -10.332793
v -7.985731 -18.869293 -9.199691
v -10.351831 -16.565094 -6.969298
v -7.985731 -18.869293 4.806413
v -10.351831 -16.565094 2.766404
v -9.999531 -18.869293 2.152207
v -7.985731 -21.106796 2.840211
v -7.985731 -21.106796 -7.043090
v -9.047331 -21.106796 -4.776992
v -9.999531 -18.869293 -6.355193
v -7.980931 -22.563591 -2.100295
v -9.313931 -21.116295 -2.100295
v -9.042631 -21.106796 0.574113
v -10.589831 -18.869293 -2.100295
v -11.180131 -16.565094 -2.100295
v -11.323031 -13.956192 -2.100296
vn -0.3026 -0.6740 0.6740
vn -0.5057 -0.3795 0.7747
vn -0.4190 -0.6420 0.6420
vn -0.3406 -0.3532 0.8713
vn 0.0001 -0.7071 0.7071
vn 0.0001 -0.3672 0.9301
vn 0.3407 -0.3532 0.8713
vn 0.3026 -0.6739 0.6740
vn 0.5057 -0.3795 0.7747
vn 0.4190 -0.6420 0.6420
vn 1.0000 -0.0000 -0.0000
vn -0.0005 0.6494 -0.7605
vn -0.0000 0.6493 -0.7605
vn -0.0000 0.9082 -0.4186
vn -0.0002 0.9081 -0.4188
vn -0.2797 0.6662 0.6913
vn -0.3225 0.8073 0.4941
vn 0.0003 0.9081 -0.4188
vn 0.0001 0.6668 0.7452
vn 0.2798 0.6663 0.6913
vn 0.3225 0.8074 0.4941
vn -1.0000 -0.0000 -0.0000
vn 0.0005 0.6494 -0.7604
vn 0.3825 -0.0000 -0.9240
vn 0.1465 0.6586 -0.7381
vn 0.2854 0.6657 -0.6895
vn 0.1947 -0.0000 -0.9809
vn 0.7074 -0.0000 -0.7068
vn 0.5279 0.6657 -0.5275
vn 0.9239 -0.0000 -0.3827
vn 0.6893 0.6659 -0.2855
vn 0.7463 0.6656 -0.0000
vn 0.9239 -0.0000 0.3827
vn 0.6893 0.6659 0.2855
vn 0.7074 -0.0000 0.7068
vn 0.5279 0.6657 0.5275
vn 0.3831 -0.0000 0.9237
vn 0.2858 0.6658 0.6892
vn 0.0001 -0.0000 1.0000
vn 0.0001 0.6656 0.7463
vn -0.3830 -0.0000 0.9237
vn -0.2858 0.6658 0.6892
vn -0.7074 -0.0000 0.7068
vn -0.5279 0.6657 0.5275
vn -0.9239 -0.0000 0.3827
vn -0.6893 0.6659 0.2856
vn -0.7463 0.6656 -0.0000
vn -0.9239 -0.0000 -0.3827
vn -0.6893 0.6659 -0.2855
vn -0.7074 -0.0000 -0.7069
vn -0.5279 0.6657 -0.5275
vn -0.3824 -0.0000 -0.9240
vn -0.1945 -0.0000 -0.9809
vn -0.2854 0.6657 -0.6895
vn -0.1464 0.6587 -0.7381
vn -0.0000 1.0000 -0.0000
vn -0.3825 -0.0000 -0.9239
vn 0.0001 -0.0000 -1.0000
vn -0.7073 -0.0000 -0.7069
vn -0.9238 -0.0000 -0.3829
vn 0.9238 -0.0000 -0.3829
vn 0.7073 -0.0000 -0.7069
vn 0.3826 -0.0000 -0.9239
vn 0.9237 -0.0000 0.3830
vn 0.7073 -0.0000 0.7069
vn 0.5558 -0.0000 0.8313
vn 0.7072 -0.0000 0.7070
vn -0.5558 -0.0000 0.8313
vn -0.7072 -0.0000 0.7070
vn -0.7073 -0.0000 0.7069
vn -0.9237 -0.0000 0.3830
vn 0.2143 -0.0000 0.9768
vn 0.2159 -0.0017 0.9764
vn 0.3373 -0.0030 0.9414
vn -0.2141 -0.0000 0.9768
vn -0.3373 -0.0030 0.9414
vn -0.2158 -0.0017 0.9764
vn -0.3602 -0.0031 0.9329
vn -0.6508 -0.0007 0.7593
vn -0.7303 -0.0022 0.6831
vn -0.9208 -0.0018 0.3900
vn -0.9242 0.0032 0.3819
vn -1.0000 -0.0014 -0.0014
vn -1.0000 -0.0000 0.0007
vn -0.9280 0.0012 -0.3727
vn -0.9261 -0.0057 -0.3771
vn -0.6419 -0.0007 -0.7668
vn -0.7399 -0.0049 -0.6727
vn -0.3357 -0.0010 -0.9420
vn -0.3158 -0.0002 -0.9488
vn -0.2179 0.0002 -0.9760
vn -0.2182 -0.0000 -0.9759
vn 0.2181 0.0003 -0.9759
vn 0.3158 -0.0002 -0.9488
vn 0.3357 -0.0010 -0.9420
vn -0.3189 -0.9468 0.0430
vn -0.1898 -0.9807 0.0463
vn -0.3473 -0.9366 0.0475
vn -0.1732 -0.9839 0.0430
vn 0.2183 -0.0000 -0.9759
vn 0.1897 -0.9807 0.0463
vn 0.1731 -0.9840 0.0430
vn 0.3189 -0.9468 0.0430
vn 0.3472 -0.9366 0.0475
vn 0.6419 -0.0007 -0.7668
vn 0.9255 -0.0039 -0.3786
vn 0.7399 -0.0049 -0.6727
vn 0.9280 0.0012 -0.3727
vn 1.0000 -0.0014 0.0018
vn 1.0000 -0.0000 0.0007
vn 0.9242 0.0032 0.3819
vn 0.6508 -0.0007 0.7593
vn 0.9214 -0.0037 0.3885
vn 0.3602 -0.0031 0.9329
vn 0.7303 -0.0022 0.6831
vn -0.8359 -0.5482 0.0268
vn 0.8119 -0.0462 0.5819
vn -0.8628 -0.5048 0.0290
vn -1.0000 -0.0004 -0.0000
vn 0.9175 -0.0289 0.3967
vn 0.7959 -0.1648 0.5825
vn -1.0000 0.0008 -0.0000
vn 0.9216 -0.0283 -0.3871
vn 0.8286 -0.0411 -0.5583
vn 0.8122 -0.1589 -0.5613
vn 0.9997 -0.0247 0.0016
vn 0.9116 -0.1427 -0.3854
vn 0.9055 -0.1452 0.3987
vn 0.9898 -0.1422 -0.0000
vn 0.8609 -0.3700 0.3491
vn 0.9317 -0.3632 0.0002
vn 0.8650 -0.3711 -0.3378
vn 0.7669 -0.3454 -0.5409
vn 0.7008 -0.5887 -0.4028
vn 0.7265 -0.6555 -0.2063
vn -1.0000 0.0004 -0.0000
vn -1.0000 0.0014 -0.0000
vn -1.0000 0.0015 -0.0000
vn 0.6834 -0.7301 0.0004
vn -1.0000 0.0033 -0.0000
vn 0.7496 -0.3465 0.5639
vn 0.6985 -0.5835 0.4142
vn 0.7266 -0.6554 0.2062
vn 0.8102 -0.5862 0.0008
vn 0.8359 -0.5482 0.0268
vn 0.8628 -0.5048 0.0290
vn -0.9223 -0.0265 -0.3857
vn 1.0000 -0.0004 -0.0000
vn -0.8286 -0.0411 -0.5583
vn -0.8119 -0.0462 0.5819
vn -0.9168 -0.0307 0.3982
vn -0.7959 -0.1648 0.5825
vn 1.0000 0.0008 -0.0000
vn -0.7669 -0.3454 -0.5409
vn -0.9116 -0.1427 -0.3854
vn -0.8122 -0.1589 -0.5613
vn 1.0000 0.0014 -0.0000
vn 1.0000 0.0015 -0.0000
vn -0.9055 -0.1452 0.3987
vn -0.7496 -0.3465 0.5639
vn -0.8609 -0.3700 0.3491
vn -0.6985 -0.5835 0.4142
vn 1.0000 0.0004 -0.0000
vn 1.0000 0.0033 -0.0000
vn -0.8650 -0.3711 -0.3378
vn -0.7008 -0.5887 -0.4028
vn -0.7265 -0.6555 -0.2063
vn -0.6834 -0.7301 0.0004
vn -0.7266 -0.6554 0.2062
vn -0.8102 -0.5862 0.0007
vn -0.9317 -0.3632 0.0002
vn -0.9898 -0.1422 -0.0000
vn -0.9997 -0.0247 -0.0016
vt 0.816400 0.153800
vt 0.812500 0.161600
vt 0.811000 0.153800
vt 0.817400 0.161600
vt 0.822300 0.153800
vt 0.822300 0.161600
vt 0.827100 0.161600
vt 0.828100 0.153800
vt 0.832000 0.161600
vt 0.833000 0.153800
vt 0.800300 0.178200
vt 0.802700 0.159200
vt 0.810100 0.159200
vt 0.810100 0.178200
vt 0.831500 0.200200
vt 0.822300 0.200200
vt 0.822300 0.191400
vt 0.831500 0.190900
vt 0.817400 0.174800
vt 0.813000 0.176300
vt 0.813000 0.190900
vt 0.822300 0.174300
vt 0.826700 0.174800
vt 0.831500 0.176300
vt 0.811000 0.188500
vt 0.802700 0.200200
vt 0.800300 0.181200
vt 0.793000 0.181200
vt 0.793000 0.200200
vt 0.813000 0.200200
vt 0.793900 0.169400
vt 0.850600 0.161100
vt 0.855000 0.153800
vt 0.855000 0.161100
vt 0.850600 0.153800
vt 0.850600 0.168000
vt 0.855000 0.168000
vt 0.850600 0.174800
vt 0.850600 0.182100
vt 0.855000 0.174800
vt 0.855000 0.182100
vt 0.850600 0.189000
vt 0.855000 0.189000
vt 0.850600 0.196300
vt 0.855000 0.196300
vt 0.850600 0.203100
vt 0.855000 0.203100
vt 0.850600 0.210000
vt 0.855000 0.210000
vt 0.850600 0.215300
vt 0.855000 0.215300
vt 0.850600 0.221200
vt 0.855000 0.221200
vt 0.850600 0.226600
vt 0.855000 0.226600
vt 0.850600 0.231900
vt 0.855000 0.231900
vt 0.850600 0.237300
vt 0.855000 0.237300
vt 0.850600 0.242700
vt 0.855000 0.242700
vt 0.850600 0.248000
vt 0.850600 0.253400
vt 0.855000 0.248000
vt 0.855000 0.253400
vt 0.859400 0.253400
vt 0.859400 0.248000
vt 0.837900 0.204600
vt 0.847700 0.198200
vt 0.847700 0.204600
vt 0.859400 0.242700
vt 0.837900 0.210900
vt 0.847700 0.210900
vt 0.837900 0.217300
vt 0.847700 0.217300
vt 0.859400 0.237300
vt 0.837900 0.223600
vt 0.834500 0.220200
vt 0.803200 0.226600
vt 0.801800 0.220200
vt 0.829600 0.231900
vt 0.806600 0.231900
vt 0.833000 0.226600
vt 0.837900 0.179700
vt 0.847700 0.179700
vt 0.837900 0.186000
vt 0.824200 0.235400
vt 0.847700 0.186000
vt 0.837900 0.191900
vt 0.812000 0.235400
vt 0.847700 0.191900
vt 0.837900 0.198200
vt 0.818400 0.236800
vt 0.859400 0.153800
vt 0.859400 0.161100
vt 0.859400 0.168000
vt 0.859400 0.174800
vt 0.859400 0.182100
vt 0.847700 0.173300
vt 0.859400 0.189000
vt 0.847700 0.167000
vt 0.837900 0.173300
vt 0.837900 0.167000
vt 0.847700 0.160600
vt 0.859400 0.196300
vt 0.806600 0.209000
vt 0.833000 0.214400
vt 0.803200 0.214400
vt 0.829600 0.209000
vt 0.837900 0.160600
vt 0.812000 0.205600
vt 0.824200 0.205600
vt 0.837900 0.154300
vt 0.847700 0.154300
vt 0.837900 0.242700
vt 0.847700 0.236300
vt 0.847700 0.242700
vt 0.837900 0.236300
vt 0.859400 0.215300
vt 0.859400 0.221200
vt 0.859400 0.226600
vt 0.847700 0.230000
vt 0.859400 0.231900
vt 0.837900 0.230000
vt 0.847700 0.223600
vt 0.859400 0.210000
vt 0.859400 0.203100
vt 0.851600 0.302200
vt 0.851600 0.292500
vt 0.861300 0.302200
vt 0.861300 0.291000
vt 0.870100 0.302200
vt 0.870100 0.285600
vt 0.879400 0.285600
vt 0.879400 0.302200
vt 0.891100 0.285600
vt 0.891100 0.302200
vt 0.902300 0.302200
vt 0.902300 0.285600
vt 0.912100 0.302200
vt 0.912100 0.283700
vt 0.920900 0.288600
vt 0.920900 0.302200
vt 0.930700 0.290500
vt 0.930700 0.302200
vt 0.910600 0.255900
vt 0.939500 0.250500
vt 0.938000 0.256300
vt 0.909700 0.250000
vt 0.913100 0.261700
vt 0.870100 0.269000
vt 0.936000 0.262200
vt 0.913600 0.271500
vt 0.879400 0.269500
vt 0.871600 0.262700
vt 0.936000 0.273900
vt 0.914100 0.274900
vt 0.936500 0.270500
vt 0.902300 0.269500
vt 0.911600 0.269000
vt 0.910600 0.262700
vt 0.890600 0.270000
vt 0.901900 0.264200
vt 0.879900 0.264200
vt 0.890600 0.264200
vt 0.881300 0.259300
vt 0.890600 0.259300
vt 0.900400 0.258800
vt 0.907700 0.257300
vt 0.901900 0.252400
vt 0.896500 0.253900
vt 0.931600 0.280300
vt 0.916000 0.277800
vt 0.934600 0.277300
vt 0.890600 0.249500
vt 0.918500 0.280800
vt 0.925300 0.282200
vt 0.874500 0.257300
vt 0.879400 0.252400
vt 0.884800 0.253900
vt 0.890600 0.253900
s 1
usemtl Material__25.001
f 1/1/1 3/2/2 2/3/3
f 3/2/2 1/1/1 4/4/4
f 5/5/5 4/4/4 1/1/1
f 4/4/4 5/5/5 6/6/6
f 6/6/6 5/5/5 7/7/7
f 7/7/7 5/5/5 8/8/8
f 7/7/7 8/8/8 9/9/9
f 10/10/10 9/9/9 8/8/8
f 11/11/11 9/12/11 10/13/11
f 11/11/11 10/13/11 12/14/11
f 12/15/12 13/16/13 14/17/14
f 12/15/12 14/17/14 11/18/15
f 17/19/16 14/17/14 15/20/17
f 15/20/17 14/17/14 20/21/18
f 17/19/16 16/22/19 14/17/14
f 16/22/19 18/23/20 14/17/14
f 19/24/21 14/17/14 18/23/20
f 14/17/14 19/24/21 11/18/15
f 13/16/13 20/21/18 14/17/14
f 15/25/22 20/26/22 3/27/22
f 3/27/22 20/26/22 2/28/22
f 2/28/22 20/26/22 21/29/22
f 13/16/13 21/30/23 20/21/18
f 18/23/20 7/7/7 19/24/21
f 19/24/21 7/7/7 9/9/9
f 9/12/11 11/11/11 19/31/11
f 18/23/20 6/6/6 7/7/7
f 16/22/19 6/6/6 18/23/20
f 17/19/16 3/2/2 4/4/4
f 17/19/16 4/4/4 16/22/19
f 15/20/17 3/2/2 17/19/16
f 16/22/19 4/4/4 6/6/6
f 22/32/24 23/33/25 25/34/26
f 22/32/24 24/35/27 23/33/25
f 26/36/28 22/32/24 25/34/26
f 26/36/28 25/34/26 27/37/29
f 28/38/30 26/36/28 27/37/29
f 30/39/11 28/38/30 29/40/31
f 27/37/29 29/40/31 28/38/30
f 29/40/31 31/41/32 30/39/11
f 32/42/33 30/39/11 31/41/32
f 31/41/32 33/43/34 32/42/33
f 34/44/35 32/42/33 33/43/34
f 35/45/36 36/46/37 34/44/35
f 33/43/34 35/45/36 34/44/35
f 37/47/38 38/48/39 36/46/37
f 35/45/36 37/47/38 36/46/37
f 37/47/38 39/49/40 38/48/39
f 39/49/40 40/50/41 38/48/39
f 39/49/40 41/51/42 40/50/41
f 41/51/42 42/52/43 40/50/41
f 43/53/44 44/54/45 42/52/43
f 41/51/42 43/53/44 42/52/43
f 45/55/46 46/56/22 44/54/45
f 44/54/45 43/53/44 45/55/46
f 46/56/22 45/55/46 47/57/47
f 47/57/47 48/58/48 46/56/22
f 48/58/48 47/57/47 49/59/49
f 49/59/49 50/60/50 48/58/48
f 51/61/51 52/62/52 50/60/50
f 50/60/50 49/59/49 51/61/51
f 24/63/53 52/62/52 53/64/54
f 52/62/52 51/61/51 53/64/54
f 24/63/53 53/64/54 23/65/55
f 54/66/56 53/64/54 55/67/56
f 53/64/54 54/66/56 23/65/55
f 51/61/51 55/67/56 53/64/54
f 57/68/57 54/69/58 55/70/57
f 55/67/56 51/61/51 58/71/56
f 55/70/57 56/72/59 57/68/57
f 56/72/59 55/70/57 58/73/59
f 60/74/60 58/73/59 59/75/60
f 58/71/56 49/59/49 59/76/56
f 49/59/49 58/71/56 51/61/51
f 58/73/59 60/74/60 56/72/59
f 59/75/60 61/77/22 60/74/60
f 62/78/56 60/79/56 61/80/56
f 60/79/56 64/81/56 56/82/56
f 60/79/56 62/78/56 63/83/56
f 60/79/56 63/83/56 64/81/56
f 63/84/61 65/85/61 64/86/62
f 56/82/56 64/81/56 67/87/56
f 66/88/62 64/86/62 65/85/61
f 66/88/62 67/89/63 64/86/62
f 56/82/56 67/87/56 57/90/56
f 68/91/63 67/89/63 66/88/62
f 68/91/63 69/92/58 67/89/63
f 67/87/56 69/93/56 57/90/56
f 69/92/58 68/91/63 54/69/58
f 54/69/58 57/68/57 69/92/58
f 25/34/26 54/94/56 68/95/56
f 66/96/56 25/34/26 68/95/56
f 25/34/26 66/96/56 27/37/29
f 66/96/56 29/40/31 27/37/29
f 29/40/31 66/96/56 65/97/56
f 31/41/32 29/40/31 65/97/56
f 31/41/32 65/97/56 70/98/56
f 70/99/11 65/85/61 63/84/61
f 71/100/56 31/41/32 70/98/56
f 71/101/64 70/99/11 62/102/11
f 62/102/11 70/99/11 63/84/61
f 31/41/32 71/100/56 33/43/34
f 71/101/64 73/103/64 72/104/65
f 72/105/56 33/43/34 71/100/56
f 73/103/64 71/101/64 62/102/11
f 74/106/56 73/107/56 75/108/56
f 74/106/56 76/109/56 73/107/56
f 75/108/56 73/107/56 62/78/56
f 76/110/65 72/104/65 73/103/64
f 76/109/56 79/111/56 77/112/56
f 77/113/66 78/114/66 76/110/67
f 76/109/56 74/106/56 79/111/56
f 76/110/65 78/114/66 72/104/65
f 79/115/68 81/116/69 80/117/68
f 74/118/70 81/116/70 79/115/68
f 80/119/56 81/120/56 43/53/44
f 45/55/46 43/53/44 81/120/56
f 81/120/56 82/121/56 45/55/46
f 74/118/70 82/122/71 81/116/70
f 82/121/56 47/57/47 45/55/46
f 47/57/47 82/121/56 83/123/56
f 75/124/71 83/125/22 82/122/71
f 82/122/71 74/118/70 75/124/71
f 59/76/56 47/57/47 83/123/56
f 61/77/22 59/75/60 83/125/22
f 83/125/22 75/124/71 61/77/22
f 43/53/44 41/51/42 80/119/56
f 41/51/42 84/126/56 80/119/56
f 41/51/42 39/49/40 84/126/56
f 37/47/38 84/126/56 39/49/40
f 84/126/56 37/47/38 78/127/56
f 37/47/38 72/105/56 78/127/56
f 75/108/56 62/78/56 61/80/56
f 72/105/56 37/47/38 35/45/36
f 33/43/34 72/105/56 35/45/36
f 47/57/47 59/76/56 49/59/49
f 54/94/56 25/34/26 23/33/25
f 85/128/72 87/129/73 86/130/74
f 85/128/75 88/130/76 87/129/77
f 88/130/76 89/131/78 87/129/77
f 88/130/76 90/132/79 89/131/78
f 90/132/79 91/133/80 89/131/78
f 90/132/79 92/134/81 91/133/80
f 92/134/81 90/132/79 93/135/82
f 93/135/82 94/136/83 92/134/81
f 94/136/83 93/135/82 95/137/84
f 96/138/85 94/136/83 95/137/84
f 94/136/83 96/138/85 97/139/86
f 97/139/86 96/138/85 98/140/87
f 98/140/87 99/141/88 97/139/86
f 99/141/88 98/140/87 100/142/89
f 100/142/89 98/140/87 101/143/90
f 103/144/91 101/143/90 102/145/92
f 103/144/91 100/142/89 101/143/90
f 103/144/93 106/143/94 104/142/95
f 105/146/96 103/147/97 104/148/98
f 87/149/99 103/147/97 105/146/96
f 106/143/94 103/144/93 102/145/100
f 103/147/101 87/149/102 89/146/103
f 89/146/103 100/148/104 103/147/101
f 104/142/95 106/143/94 107/140/105
f 107/140/105 109/139/106 108/141/107
f 107/140/105 108/141/107 104/142/95
f 109/139/106 107/140/105 110/138/108
f 110/138/108 111/136/109 109/139/106
f 111/136/109 110/138/108 112/137/110
f 113/135/111 111/136/109 112/137/110
f 115/132/112 114/134/113 113/135/111
f 111/136/109 113/135/111 114/134/113
f 105/131/114 115/132/112 86/130/74
f 116/133/115 115/132/112 105/131/114
f 115/132/112 116/133/115 114/134/113
f 105/146/96 104/148/98 116/150/116
f 116/133/115 117/151/117 114/134/113
f 108/152/118 117/153/119 116/150/116
f 116/150/116 104/148/98 108/152/118
f 118/154/120 114/134/113 117/151/117
f 119/155/121 118/154/120 117/151/117
f 117/153/119 120/156/122 119/157/122
f 120/156/122 117/153/119 121/158/119
f 117/153/119 108/152/118 121/158/119
f 122/159/123 121/160/124 108/141/107
f 122/159/123 120/161/125 121/160/124
f 124/162/126 122/159/123 109/139/106
f 109/139/106 122/159/123 108/141/107
f 124/162/126 123/163/127 122/159/123
f 120/161/125 122/159/123 123/163/127
f 118/154/120 124/162/126 111/136/109
f 111/136/109 124/162/126 109/139/106
f 125/164/128 124/162/126 118/154/120
f 124/162/126 125/164/128 126/165/129
f 123/163/127 124/162/126 126/165/129
f 127/166/130 126/165/129 125/164/128
f 126/165/129 127/166/130 128/167/131
f 126/165/129 129/168/132 123/163/127
f 129/168/132 126/165/129 128/167/131
f 130/169/133 123/163/127 129/168/132
f 129/168/132 132/170/134 130/169/133
f 128/167/131 131/171/135 129/168/132
f 132/170/134 129/168/132 131/171/135
f 132/172/136 135/173/137 130/174/138
f 134/175/139 132/170/134 131/171/135
f 133/176/136 132/172/136 134/177/140
f 135/173/137 132/172/136 133/176/136
f 135/178/141 125/164/128 119/155/121
f 125/164/128 135/178/141 127/166/130
f 119/157/122 120/156/122 135/173/137
f 133/179/142 127/166/130 135/178/141
f 135/173/137 120/156/122 130/174/138
f 134/175/139 136/180/143 133/179/142
f 134/175/139 137/181/144 136/180/143
f 134/175/139 131/171/135 137/181/144
f 131/171/135 128/167/131 137/181/144
f 128/167/131 136/180/143 137/181/144
f 127/166/130 133/179/142 136/180/143
f 136/180/143 128/167/131 127/166/130
f 123/163/127 130/169/133 120/161/125
f 118/154/120 119/155/121 125/164/128
f 114/134/113 118/154/120 111/136/109
f 86/130/74 87/129/73 105/131/114
f 100/148/104 91/150/145 99/152/146
f 100/148/104 89/146/103 91/150/145
f 99/141/88 139/159/147 97/139/86
f 140/153/148 99/152/146 91/150/145
f 139/159/147 99/141/88 138/160/149
f 99/152/146 140/153/148 138/158/148
f 92/134/81 140/151/150 91/133/80
f 140/151/150 92/134/81 141/154/151
f 141/154/151 142/155/152 140/151/150
f 143/156/153 140/153/148 142/157/153
f 140/153/148 143/156/153 138/158/148
f 144/169/154 145/163/155 143/161/156
f 143/156/153 146/173/157 144/174/158
f 143/156/153 142/157/153 146/173/157
f 139/159/147 143/161/156 145/163/155
f 143/161/156 139/159/147 138/160/149
f 147/164/159 146/178/160 142/155/152
f 146/178/160 147/164/159 148/166/161
f 148/166/161 149/179/162 146/178/160
f 150/172/163 146/173/157 149/176/163
f 146/173/157 150/172/163 144/174/158
f 149/176/163 153/177/164 150/172/163
f 152/168/165 150/170/166 151/171/167
f 153/175/168 151/171/167 150/170/166
f 150/170/166 152/168/165 144/169/154
f 153/175/168 149/179/162 155/180/169
f 153/175/168 155/180/169 154/181/170
f 153/175/168 154/181/170 151/171/167
f 149/179/162 148/166/161 155/180/169
f 156/167/171 155/180/169 148/166/161
f 155/180/169 156/167/171 154/181/170
f 148/166/161 157/165/172 156/167/171
f 157/165/172 152/168/165 156/167/171
f 151/171/167 156/167/171 152/168/165
f 156/167/171 151/171/167 154/181/170
f 147/164/159 158/162/173 157/165/172
f 157/165/172 148/166/161 147/164/159
f 158/162/173 145/163/155 157/165/172
f 152/168/165 157/165/172 145/163/155
f 92/134/81 158/162/173 141/154/151
f 158/162/173 147/164/159 141/154/151
f 158/162/173 92/134/81 94/136/83
f 94/136/83 139/159/147 158/162/173
f 145/163/155 158/162/173 139/159/147
f 145/163/155 144/169/154 152/168/165
f 142/155/152 141/154/151 147/164/159
f 139/159/147 94/136/83 97/139/86
